<svg xmlns="http://www.w3.org/2000/svg" width="410" height="404" viewBox="0 0 410 404" fill="none">
  <path d="M399.641 59.5246L215.643 388.545C211.844 395.338 202.084 395.378 198.228 388.618L10.5817 59.5563C6.38087 52.1896 12.6802 43.2665 21.0281 44.7586L205.223 77.6824C206.398 77.8924 207.601 77.8904 208.776 77.6763L389.119 44.8058C397.439 43.2894 403.768 52.1434 399.641 59.5246Z" fill="url(#paint0_linear)"/>
  <path d="M292.965 1.5744L156.801 28.2552C155.563 28.5004 154.431 29.1305 153.579 30.0589C152.727 30.9874 152.197 32.1623 152.066 33.4197L135.916 190.678C135.487 194.86 139.165 198.203 143.264 197.396L188.42 188.659C192.789 187.795 196.533 191.492 195.534 195.838L183.046 250.702C182.008 255.214 186.152 259.154 190.601 257.94L212.947 251.779C217.398 250.565 221.544 254.509 220.502 259.022L201.809 341.251C200.52 346.875 207.486 350.301 210.843 345.601L212.5 343.264L323.454 102.072C325.312 97.961 321.625 93.4926 317.159 94.3839L271.15 103.983C266.674 104.877 262.974 100.355 264.881 96.1326L298.117 22.6981C300.024 18.4756 296.312 13.9525 291.837 14.8463Z" fill="url(#paint1_linear)"/>
  <defs>
    <linearGradient id="paint0_linear" x1="6.00017" y1="32.9999" x2="235" y2="344" gradientUnits="userSpaceOnUse">
      <stop stop-color="#41D1FF"/>
      <stop offset="1" stop-color="#BD34FE"/>
    </linearGradient>
    <linearGradient id="paint1_linear" x1="194.651" y1="8.81818" x2="236.076" y2="292.989" gradientUnits="userSpaceOnUse">
      <stop stop-color="#FFEA83"/>
      <stop offset="0.0833333" stop-color="#FFDD35"/>
      <stop offset="1" stop-color="#FFA800"/>
    </linearGradient>
  </defs>
</svg>
